<svg width="38" height="38" viewBox="0 0 38 38" fill="none" xmlns="http://www.w3.org/2000/svg">
<path fill-rule="evenodd" clip-rule="evenodd" d="M0 6.25C0 4.5924 0.65848 3.00269 1.83058 1.83058C3.00269 0.65848 4.5924 0 6.25 0H31.25C32.9076 0 34.4973 0.65848 35.6694 1.83058C36.8415 3.00269 37.5 4.5924 37.5 6.25V31.25C37.5 32.9076 36.8415 34.4973 35.6694 35.6694C34.4973 36.8415 32.9076 37.5 31.25 37.5H6.25C4.5924 37.5 3.00269 36.8415 1.83058 35.6694C0.65848 34.4973 0 32.9076 0 31.25V6.25ZM20.8333 10.4167C20.8333 9.86413 20.6138 9.33423 20.2231 8.94353C19.8324 8.55283 19.3025 8.33333 18.75 8.33333C18.1975 8.33333 17.6676 8.55283 17.2769 8.94353C16.8862 9.33423 16.6667 9.86413 16.6667 10.4167V27.0833C16.6667 27.6359 16.8862 28.1658 17.2769 28.5565C17.6676 28.9472 18.1975 29.1667 18.75 29.1667C19.3025 29.1667 19.8324 28.9472 20.2231 28.5565C20.6138 28.1658 20.8333 27.6359 20.8333 27.0833V10.4167ZM12.5 16.6667C12.5 16.1141 12.2805 15.5842 11.8898 15.1935C11.4991 14.8028 10.9692 14.5833 10.4167 14.5833C9.86413 14.5833 9.33423 14.8028 8.94353 15.1935C8.55283 15.5842 8.33333 16.1141 8.33333 16.6667V27.0833C8.33333 27.6359 8.55283 28.1658 8.94353 28.5565C9.33423 28.9472 9.86413 29.1667 10.4167 29.1667C10.9692 29.1667 11.4991 28.9472 11.8898 28.5565C12.2805 28.1658 12.5 27.6359 12.5 27.0833V16.6667ZM29.1667 22.9167C29.1667 22.3641 28.9472 21.8342 28.5565 21.4435C28.1658 21.0528 27.6359 20.8333 27.0833 20.8333C26.5308 20.8333 26.0009 21.0528 25.6102 21.4435C25.2195 21.8342 25 22.3641 25 22.9167V27.0833C25 27.6359 25.2195 28.1658 25.6102 28.5565C26.0009 28.9472 26.5308 29.1667 27.0833 29.1667C27.6359 29.1667 28.1658 28.9472 28.5565 28.5565C28.9472 28.1658 29.1667 27.6359 29.1667 27.0833V22.9167Z" fill="#5DDA6A"/>
</svg>
