<svg width="47" height="47" viewBox="0 0 47 47" fill="none" xmlns="http://www.w3.org/2000/svg">
<path d="M18.5083 0.0003662C17.1515 0.0144287 15.9085 0.479663 14.5837 1.53845C15.3291 8.66961 16.478 15.556 18.2824 22.04C17.2487 22.1332 16.2151 22.2288 15.1818 22.3269C11.954 17.5922 9.81396 12.6189 7.40595 7.70896C6.48407 7.58728 5.22626 7.84148 4.16806 8.42312C3.05458 9.03503 2.22157 9.95408 1.97685 10.898C5.08271 17.3929 9.0122 24.2362 13.1433 30.2064C14.0274 31.3226 14.8085 32.4891 15.5725 33.6488L15.8532 34.0457L15.8259 34.0335C16.4829 35.032 17.135 36.0192 17.8369 36.9539L16.3781 38.0496C15.0006 36.2153 13.8625 34.3303 12.6184 32.5838C8.83515 30.8928 5.17353 29.8123 2.91073 30.0783C1.7621 30.2133 1.03251 30.6066 0.548429 31.3874C0.116593 32.0843 -0.10411 33.2394 0.0480389 34.9245C7.78046 36.8454 12.1412 40.7755 15.1267 43.3411C16.379 44.4173 17.6098 45.4158 19.1184 46.2587H31.2187C34.3135 44.9342 36.6584 42.7777 37.194 40.146C37.6552 37.8817 38.7727 34.074 39.3091 31.7934C40.1843 28.0712 41.886 23.521 43.3984 19.8976C44.1546 18.0858 44.8628 16.5116 45.4004 15.3901C45.6691 14.8293 45.8957 14.3817 46.0718 14.0626C46.0909 14.0276 46.1057 14.0057 46.1235 13.974C45.7131 12.9558 44.9499 12.0176 44.0483 11.4227C43.1523 10.8313 42.194 10.5917 41.3903 10.7574C39.2073 14.6604 37.2182 18.6956 35.7903 23.3824C34.9233 23.0406 34.045 22.7595 33.1536 22.5311C33.098 21.2543 33.0838 19.9759 33.1109 18.6981L26.9309 18.048C26.889 19.2541 26.8808 20.466 26.9065 21.6828C26.0921 21.653 25.2708 21.65 24.4469 21.6644C22.7208 14.6351 21.6242 7.62126 21.3524 0.589233C20.425 0.24353 19.5936 0.0363038 18.8104 0.00622571C18.8004 0.00593274 18.7899 0.00358892 18.7799 0.00329596C18.6881 0.000366268 18.5986 -0.000610362 18.5082 0.0003662H18.5083ZM31.5239 0.546558C30.7293 0.540991 30.0161 0.712573 29.5373 1.01042C28.6504 4.43035 27.95 7.87761 27.4926 11.362L33.6297 12.009C34.0701 8.71951 34.769 5.52234 35.6684 2.40505C35.0019 1.56384 33.8503 0.924097 32.6439 0.66853C32.2757 0.590451 31.9005 0.549555 31.5241 0.54646L31.5239 0.546558ZM26.0919 13.0556C26.0464 13.0541 26.003 13.0554 25.9637 13.0586C25.7269 13.0781 25.5926 13.1797 25.4451 13.3486C25.2481 13.5742 25.087 13.9829 25.0545 14.432C25.0217 14.8812 25.1199 15.351 25.2863 15.6498C25.4526 15.9484 25.6108 16.0699 25.8875 16.1013L34.231 16.9802H34.2433L34.2555 16.9832C34.7392 17.0474 34.9557 16.9295 35.1679 16.7088C35.3801 16.4877 35.5473 16.0955 35.5829 15.659C35.6187 15.2222 35.5211 14.7642 35.3388 14.4594C35.16 14.1603 34.9573 13.9973 34.5974 13.9468L34.579 13.9438L26.2476 13.0678H26.2386C26.1899 13.062 26.141 13.058 26.0921 13.0557L26.0919 13.0556Z" fill="#5DDA6A"/>
</svg>
