<svg width="54" height="54" viewBox="0 0 54 54" fill="none" xmlns="http://www.w3.org/2000/svg">
<path d="M27 24.0833C19.7083 24.0833 13.5104 22.941 8.40625 20.6562C3.30208 18.3715 0.75 15.625 0.75 12.4167C0.75 9.20833 3.30208 6.46181 8.40625 4.17708C13.5104 1.89236 19.7083 0.75 27 0.75C34.2917 0.75 40.4896 1.89236 45.5938 4.17708C50.6979 6.46181 53.25 9.20833 53.25 12.4167C53.25 15.625 50.6979 18.3715 45.5938 20.6562C40.4896 22.941 34.2917 24.0833 27 24.0833ZM27 38.6667C19.7083 38.6667 13.5104 37.5243 8.40625 35.2396C3.30208 32.9549 0.75 30.2083 0.75 27V19.7083C0.75 21.8472 1.74653 23.6585 3.73958 25.1421C5.73264 26.6238 8.11458 27.8264 10.8854 28.75C13.6563 29.6736 16.5369 30.3415 19.5275 30.7537C22.5161 31.1679 25.0069 31.375 27 31.375C28.9931 31.375 31.4839 31.1679 34.4725 30.7537C37.4631 30.3415 40.3437 29.6736 43.1146 28.75C45.8854 27.8264 48.2674 26.6238 50.2604 25.1421C52.2535 23.6585 53.25 21.8472 53.25 19.7083V27C53.25 30.2083 50.6979 32.9549 45.5938 35.2396C40.4896 37.5243 34.2917 38.6667 27 38.6667ZM27 53.25C19.7083 53.25 13.5104 52.1076 8.40625 49.8229C3.30208 47.5382 0.75 44.7917 0.75 41.5833V34.2917C0.75 36.4306 1.74653 38.2418 3.73958 39.7254C5.73264 41.2071 8.11458 42.4097 10.8854 43.3333C13.6563 44.2569 16.5369 44.9258 19.5275 45.34C22.5161 45.7522 25.0069 45.9583 27 45.9583C28.9931 45.9583 31.4839 45.7522 34.4725 45.34C37.4631 44.9258 40.3437 44.2569 43.1146 43.3333C45.8854 42.4097 48.2674 41.2071 50.2604 39.7254C52.2535 38.2418 53.25 36.4306 53.25 34.2917V41.5833C53.25 44.7917 50.6979 47.5382 45.5938 49.8229C40.4896 52.1076 34.2917 53.25 27 53.25Z" fill="#5DDA6A"/>
</svg>
