<svg width="137" height="76" viewBox="0 0 137 76" fill="none" xmlns="http://www.w3.org/2000/svg">
<path d="M23.9342 57.9294C36.8452 71.1216 73.9176 75.626 98.7032 22" stroke="white" stroke-width="3" stroke-linecap="round" stroke-dasharray="8 8"/>
<g filter="url(#filter0_d_217_3)">
<path d="M87.5672 22.5338L110.948 6.00001L101.341 30.8234L97.3124 23.7734L87.5672 22.5338Z" fill="#FCFBF4"/>
<path d="M95.8329 30.4274L98.6662 26.0313L97.3623 23.76L94.4234 23.3708L95.8329 30.4274Z" fill="#FCFBF4"/>
<path d="M97.1725 23.6504L110.752 6.26645" stroke="white"/>
</g>
<path d="M13.104 36.704C13.104 36.816 13.072 36.904 13.008 36.968C12.944 37.032 12.856 37.064 12.744 37.064H5.568C5.488 37.064 5.448 37.104 5.448 37.184V39.44C5.448 39.52 5.488 39.56 5.568 39.56H10.008C10.12 39.56 10.208 39.592 10.272 39.656C10.336 39.72 10.368 39.808 10.368 39.92V43.04C10.368 43.152 10.336 43.24 10.272 43.304C10.208 43.368 10.12 43.4 10.008 43.4H5.568C5.488 43.4 5.448 43.44 5.448 43.52V46.016C5.448 46.096 5.488 46.136 5.568 46.136H12.744C12.856 46.136 12.944 46.168 13.008 46.232C13.072 46.296 13.104 46.384 13.104 46.496V49.64C13.104 49.752 13.072 49.84 13.008 49.904C12.944 49.968 12.856 50 12.744 50H1.296C1.184 50 1.096 49.968 1.032 49.904C0.968 49.84 0.936 49.752 0.936 49.64V33.56C0.936 33.448 0.968 33.36 1.032 33.296C1.096 33.232 1.184 33.2 1.296 33.2H12.744C12.856 33.2 12.944 33.232 13.008 33.296C13.072 33.36 13.104 33.448 13.104 33.56V36.704ZM18.1755 50C17.9675 50 17.8315 49.904 17.7675 49.712L14.0955 37.928C14.0795 37.896 14.0715 37.848 14.0715 37.784C14.0715 37.608 14.1835 37.52 14.4075 37.52H18.5355C18.7595 37.52 18.8955 37.624 18.9435 37.832L20.2155 43.784C20.2315 43.848 20.2555 43.88 20.2875 43.88C20.3195 43.88 20.3435 43.848 20.3595 43.784L21.6315 37.832C21.6795 37.624 21.8155 37.52 22.0395 37.52L26.1675 37.568C26.2955 37.568 26.3835 37.608 26.4315 37.688C26.4955 37.752 26.5115 37.848 26.4795 37.976L22.8315 49.712C22.7675 49.904 22.6315 50 22.4235 50H18.1755ZM38.6196 42.872C38.6676 43.224 38.6916 43.584 38.6916 43.952C38.6916 44.208 38.6836 44.408 38.6676 44.552C38.6676 44.776 38.5476 44.888 38.3076 44.888H31.1076C31.0436 44.888 31.0116 44.92 31.0116 44.984C31.0116 45.128 31.0756 45.296 31.2036 45.488C31.3636 45.76 31.6436 45.992 32.0436 46.184C32.4596 46.36 32.9236 46.448 33.4356 46.448C33.8676 46.448 34.2676 46.384 34.6356 46.256C35.0036 46.128 35.3156 45.944 35.5716 45.704C35.6516 45.64 35.7316 45.608 35.8116 45.608C35.9236 45.608 36.0116 45.656 36.0756 45.752L37.8996 48.08C37.9636 48.16 37.9956 48.248 37.9956 48.344C37.9956 48.44 37.9556 48.52 37.8756 48.584C37.3156 49.128 36.6196 49.536 35.7876 49.808C34.9556 50.064 34.0596 50.192 33.0996 50.192C31.6116 50.192 30.3396 49.88 29.2836 49.256C28.2276 48.632 27.4596 47.744 26.9796 46.592C26.6276 45.76 26.4516 44.864 26.4516 43.904C26.4516 42.896 26.5956 42 26.8836 41.216C27.3156 40 28.0276 39.048 29.0196 38.36C30.0116 37.672 31.1796 37.328 32.5236 37.328C33.5476 37.328 34.4916 37.568 35.3556 38.048C36.2356 38.528 36.9556 39.192 37.5156 40.04C38.0916 40.872 38.4596 41.816 38.6196 42.872ZM32.4996 41.192C31.8436 41.192 31.3876 41.512 31.1316 42.152L31.0356 42.416C31.0196 42.464 31.0276 42.504 31.0596 42.536C31.0916 42.552 31.1236 42.56 31.1556 42.56H33.8916C33.9556 42.56 33.9876 42.528 33.9876 42.464C33.9876 42.4 33.9636 42.296 33.9156 42.152C33.8356 41.848 33.6676 41.616 33.4116 41.456C33.1716 41.28 32.8676 41.192 32.4996 41.192ZM47.3738 37.328C48.1738 37.328 48.8938 37.504 49.5338 37.856C50.1738 38.208 50.6778 38.728 51.0458 39.416C51.4298 40.088 51.6218 40.888 51.6218 41.816V49.64C51.6218 49.752 51.5898 49.84 51.5258 49.904C51.4618 49.968 51.3738 50 51.2618 50H47.4698C47.3578 50 47.2698 49.968 47.2058 49.904C47.1418 49.84 47.1098 49.752 47.1098 49.64V42.8C47.1098 42.32 46.9818 41.936 46.7258 41.648C46.4858 41.344 46.1658 41.192 45.7658 41.192C45.3498 41.192 45.0138 41.344 44.7578 41.648C44.5178 41.936 44.3978 42.32 44.3978 42.8V49.64C44.3978 49.752 44.3658 49.84 44.3018 49.904C44.2378 49.968 44.1498 50 44.0378 50H40.2458C40.1338 50 40.0458 49.968 39.9818 49.904C39.9178 49.84 39.8857 49.752 39.8857 49.64V37.88C39.8857 37.768 39.9178 37.68 39.9818 37.616C40.0458 37.552 40.1338 37.52 40.2458 37.52H44.0378C44.1498 37.52 44.2378 37.552 44.3018 37.616C44.3658 37.68 44.3978 37.768 44.3978 37.88V38.744C44.3978 38.808 44.4138 38.848 44.4458 38.864C44.4778 38.88 44.5018 38.864 44.5178 38.816C45.1258 37.824 46.0778 37.328 47.3738 37.328ZM61.2879 40.76C61.2879 40.872 61.2559 40.96 61.1919 41.024C61.1279 41.088 61.0399 41.12 60.9279 41.12H58.9359C58.8559 41.12 58.8159 41.16 58.8159 41.24V45.008C58.8159 45.808 59.1039 46.208 59.6799 46.208H60.5679C60.6799 46.208 60.7679 46.24 60.8319 46.304C60.8959 46.368 60.9279 46.456 60.9279 46.568V49.64C60.9279 49.864 60.8079 49.992 60.5679 50.024C59.9439 50.072 59.3439 50.096 58.7679 50.096C57.3119 50.096 56.2399 49.872 55.5519 49.424C54.8639 48.976 54.5119 48.128 54.4959 46.88V41.24C54.4959 41.16 54.4559 41.12 54.3759 41.12H53.0799C52.9679 41.12 52.8799 41.088 52.8159 41.024C52.7519 40.96 52.7199 40.872 52.7199 40.76V37.88C52.7199 37.768 52.7519 37.68 52.8159 37.616C52.8799 37.552 52.9679 37.52 53.0799 37.52H54.3759C54.4559 37.52 54.4959 37.48 54.4959 37.4V34.52C54.4959 34.408 54.5279 34.32 54.5919 34.256C54.6559 34.192 54.7439 34.16 54.8559 34.16H58.4559C58.5679 34.16 58.6559 34.192 58.7199 34.256C58.7839 34.32 58.8159 34.408 58.8159 34.52V37.4C58.8159 37.48 58.8559 37.52 58.9359 37.52H60.9279C61.0399 37.52 61.1279 37.552 61.1919 37.616C61.2559 37.68 61.2879 37.768 61.2879 37.88V40.76ZM73.8596 50.192C72.5476 50.192 71.3876 49.928 70.3796 49.4C69.3876 48.872 68.6116 48.128 68.0516 47.168C67.5076 46.208 67.2356 45.104 67.2356 43.856V39.32C67.2356 38.072 67.5076 36.976 68.0516 36.032C68.6116 35.072 69.3876 34.328 70.3796 33.8C71.3876 33.272 72.5476 33.008 73.8596 33.008C75.1396 33.008 76.2836 33.264 77.2916 33.776C78.2996 34.272 79.0756 34.952 79.6196 35.816C80.1796 36.68 80.4596 37.624 80.4596 38.648V38.672C80.4596 38.784 80.4276 38.872 80.3636 38.936C80.2996 39 80.2116 39.032 80.0996 39.032H76.3316C76.0916 39.032 75.9716 38.96 75.9716 38.816C75.9716 38.288 75.7796 37.832 75.3956 37.448C75.0276 37.064 74.5156 36.872 73.8596 36.872C73.2196 36.872 72.7076 37.088 72.3236 37.52C71.9396 37.936 71.7476 38.496 71.7476 39.2V44C71.7476 44.688 71.9636 45.248 72.3956 45.68C72.8436 46.112 73.3956 46.328 74.0516 46.328C74.6436 46.328 75.1236 46.168 75.4916 45.848C75.8756 45.512 76.0676 45.056 76.0676 44.48V44.168C76.0676 44.088 76.0276 44.048 75.9476 44.048H73.8356C73.7236 44.048 73.6356 44.016 73.5716 43.952C73.5076 43.888 73.4756 43.8 73.4756 43.688V40.808C73.4756 40.696 73.5076 40.608 73.5716 40.544C73.6356 40.48 73.7236 40.448 73.8356 40.448H80.0996C80.2116 40.448 80.2996 40.48 80.3636 40.544C80.4276 40.608 80.4596 40.696 80.4596 40.808V44.096C80.4596 45.28 80.1796 46.336 79.6196 47.264C79.0756 48.192 78.2996 48.912 77.2916 49.424C76.2996 49.936 75.1556 50.192 73.8596 50.192ZM87.8366 50.192C86.3166 50.192 85.0286 49.784 83.9726 48.968C82.9326 48.152 82.2446 47.048 81.9086 45.656C81.7486 45.08 81.6686 44.44 81.6686 43.736C81.6686 42.952 81.7646 42.24 81.9566 41.6C82.3406 40.272 83.0446 39.232 84.0686 38.48C85.1086 37.712 86.3726 37.328 87.8606 37.328C89.3486 37.328 90.5966 37.712 91.6046 38.48C92.6286 39.232 93.3326 40.256 93.7166 41.552C93.9086 42.224 94.0046 42.936 94.0046 43.688C94.0046 44.296 93.9406 44.904 93.8126 45.512C93.4766 46.952 92.7806 48.096 91.7246 48.944C90.6846 49.776 89.3886 50.192 87.8366 50.192ZM87.8366 46.328C88.2526 46.328 88.5886 46.192 88.8446 45.92C89.1006 45.632 89.2766 45.256 89.3726 44.792C89.4366 44.488 89.4686 44.128 89.4686 43.712C89.4686 43.344 89.4286 42.976 89.3486 42.608C89.1086 41.664 88.6046 41.192 87.8366 41.192C87.0366 41.192 86.5326 41.664 86.3246 42.608C86.2446 42.88 86.2046 43.248 86.2046 43.712C86.2046 44.128 86.2366 44.488 86.3006 44.792C86.5406 45.816 87.0526 46.328 87.8366 46.328Z" fill="#FCFBF4"/>
<path d="M88.8174 54.5693H87.6338L86.9072 58H85.9551L86.6787 54.5693H85.4805L85.6475 53.7988H88.9844L88.8174 54.5693ZM91.8936 55.7148C91.8936 55.7441 91.8906 55.7832 91.8848 55.832C91.8789 55.8809 91.8711 55.9316 91.8613 55.9844C91.8535 56.0371 91.8447 56.0889 91.835 56.1396C91.8252 56.1885 91.8164 56.2305 91.8086 56.2656L91.4424 58H90.5137L90.874 56.2891C90.8857 56.2266 90.8975 56.1621 90.9092 56.0957C90.9209 56.0293 90.9268 55.9785 90.9268 55.9434C90.9268 55.8457 90.9014 55.7705 90.8506 55.7178C90.8018 55.6631 90.7295 55.6357 90.6338 55.6357C90.5576 55.6357 90.4766 55.6602 90.3906 55.709C90.3066 55.7559 90.2266 55.8193 90.1504 55.8994C90.0742 55.9795 90.0059 56.0732 89.9453 56.1807C89.8848 56.2881 89.8418 56.4023 89.8164 56.5234L89.5059 58H88.5684L89.5117 53.5586H90.4463L90.0156 55.5771H90.0273C90.0996 55.4834 90.1787 55.3975 90.2646 55.3193C90.3525 55.2393 90.4443 55.1709 90.54 55.1143C90.6377 55.0557 90.7373 55.0098 90.8389 54.9766C90.9424 54.9434 91.0439 54.9268 91.1436 54.9268C91.3877 54.9268 91.5732 54.9951 91.7002 55.1318C91.8291 55.2666 91.8936 55.4609 91.8936 55.7148ZM93.9854 54.0332C93.9854 54.1094 93.9707 54.1777 93.9414 54.2383C93.9121 54.2988 93.8721 54.3516 93.8213 54.3965C93.7725 54.4395 93.7139 54.4727 93.6455 54.4961C93.5791 54.5195 93.5068 54.5312 93.4287 54.5312C93.3545 54.5312 93.2852 54.5205 93.2207 54.499C93.1582 54.4756 93.1035 54.4443 93.0566 54.4053C93.0117 54.3643 92.9756 54.3164 92.9482 54.2617C92.9229 54.207 92.9102 54.1475 92.9102 54.083C92.9102 54.0068 92.9238 53.9385 92.9512 53.8779C92.9805 53.8174 93.0195 53.7656 93.0684 53.7227C93.1191 53.6777 93.1787 53.6436 93.2471 53.6201C93.3154 53.5967 93.3896 53.585 93.4697 53.585C93.5439 53.585 93.6123 53.5967 93.6748 53.6201C93.7373 53.6416 93.791 53.6729 93.8359 53.7139C93.8828 53.7529 93.9189 53.7998 93.9443 53.8545C93.9717 53.9092 93.9854 53.9688 93.9854 54.0332ZM93.6807 57.9736C93.6455 57.9834 93.6045 57.9932 93.5576 58.0029C93.5127 58.0127 93.4639 58.0215 93.4111 58.0293C93.3604 58.0391 93.3066 58.0459 93.25 58.0498C93.1953 58.0557 93.1406 58.0586 93.0859 58.0586C92.9551 58.0586 92.8428 58.041 92.749 58.0059C92.6572 57.9727 92.5811 57.9258 92.5205 57.8652C92.46 57.8027 92.415 57.7295 92.3857 57.6455C92.3584 57.5596 92.3447 57.4658 92.3447 57.3643C92.3447 57.3213 92.3467 57.2734 92.3506 57.2207C92.3564 57.168 92.3633 57.1133 92.3711 57.0566C92.3789 56.998 92.3877 56.9395 92.3975 56.8809C92.4092 56.8203 92.4209 56.7627 92.4326 56.708C92.4404 56.6748 92.4531 56.6143 92.4707 56.5264C92.4902 56.4365 92.5117 56.334 92.5352 56.2188C92.5605 56.1035 92.5869 55.9824 92.6143 55.8555C92.6416 55.7266 92.667 55.6045 92.6904 55.4893C92.7158 55.374 92.7373 55.2725 92.7549 55.1846C92.7744 55.0947 92.7881 55.0332 92.7959 55H93.7334L93.376 56.6875C93.3604 56.7559 93.3438 56.833 93.3262 56.9189C93.3086 57.0029 93.2998 57.0762 93.2998 57.1387C93.2998 57.2129 93.3232 57.2646 93.3701 57.2939C93.417 57.3232 93.4707 57.3379 93.5312 57.3379C93.582 57.3379 93.6328 57.333 93.6836 57.3232C93.7363 57.3115 93.7842 57.2969 93.8271 57.2793C93.8018 57.3965 93.7773 57.5127 93.7539 57.6279C93.7305 57.7412 93.7061 57.8564 93.6807 57.9736ZM97.3896 55.7148C97.3896 55.7441 97.3867 55.7832 97.3809 55.832C97.375 55.8809 97.3672 55.9316 97.3574 55.9844C97.3496 56.0371 97.3408 56.0889 97.3311 56.1396C97.3213 56.1885 97.3125 56.2305 97.3047 56.2656L96.9385 58H96.0098L96.3701 56.2891C96.3818 56.2266 96.3936 56.1621 96.4053 56.0957C96.417 56.0293 96.4229 55.9785 96.4229 55.9434C96.4229 55.8496 96.3984 55.7754 96.3496 55.7207C96.3027 55.6641 96.2314 55.6357 96.1357 55.6357C96.0557 55.6357 95.9717 55.6611 95.8838 55.7119C95.7979 55.7607 95.7168 55.8262 95.6406 55.9082C95.5645 55.9902 95.4971 56.085 95.4385 56.1924C95.3818 56.2979 95.3418 56.4062 95.3184 56.5176L95.0078 58H94.0645L94.5098 55.9434C94.5273 55.8535 94.5449 55.7637 94.5625 55.6738C94.5801 55.582 94.5957 55.4951 94.6094 55.4131C94.623 55.3291 94.6348 55.252 94.6445 55.1816C94.6562 55.1094 94.665 55.0488 94.6709 55H95.585C95.5791 55.0547 95.5723 55.1123 95.5645 55.1729C95.5586 55.2314 95.5518 55.2881 95.5439 55.3428C95.5381 55.3975 95.5322 55.4463 95.5264 55.4893C95.5205 55.5303 95.5156 55.5596 95.5117 55.5771H95.5234C95.5918 55.4873 95.6689 55.4033 95.7549 55.3252C95.8408 55.2451 95.9316 55.1758 96.0273 55.1172C96.125 55.0586 96.2256 55.0127 96.3291 54.9795C96.4326 54.9443 96.5361 54.9268 96.6396 54.9268C96.8877 54.9268 97.0742 54.9961 97.1992 55.1348C97.3262 55.2715 97.3896 55.4648 97.3896 55.7148ZM99.8477 56.415L100.621 58H99.5898L98.9307 56.4414H98.916L98.5879 58H97.6562L98.5996 53.5586H99.5342L98.9482 56.3008H98.96L100.152 55H101.251L99.8477 56.415ZM107.028 55.498C107.028 55.7188 107.006 55.9346 106.961 56.1455C106.916 56.3545 106.848 56.5518 106.756 56.7373C106.666 56.9229 106.552 57.0928 106.413 57.2471C106.274 57.4014 106.11 57.5342 105.921 57.6455C105.733 57.7568 105.52 57.8438 105.279 57.9062C105.039 57.9688 104.772 58 104.479 58H102.78L103.674 53.7988H105.15C105.459 53.7988 105.729 53.8408 105.962 53.9248C106.196 54.0088 106.393 54.126 106.551 54.2764C106.709 54.4248 106.828 54.6035 106.908 54.8125C106.988 55.0195 107.028 55.248 107.028 55.498ZM106.026 55.5713C106.026 55.415 106.004 55.2754 105.959 55.1523C105.916 55.0273 105.849 54.9219 105.757 54.8359C105.667 54.75 105.553 54.6846 105.414 54.6396C105.275 54.5928 105.111 54.5693 104.922 54.5693H104.462L103.896 57.2324H104.474C104.712 57.2324 104.927 57.1934 105.118 57.1152C105.31 57.0352 105.473 56.9229 105.607 56.7783C105.742 56.6318 105.846 56.457 105.918 56.2539C105.99 56.0488 106.026 55.8213 106.026 55.5713ZM109.026 54.0332C109.026 54.1094 109.012 54.1777 108.982 54.2383C108.953 54.2988 108.913 54.3516 108.862 54.3965C108.813 54.4395 108.755 54.4727 108.687 54.4961C108.62 54.5195 108.548 54.5312 108.47 54.5312C108.396 54.5312 108.326 54.5205 108.262 54.499C108.199 54.4756 108.145 54.4443 108.098 54.4053C108.053 54.3643 108.017 54.3164 107.989 54.2617C107.964 54.207 107.951 54.1475 107.951 54.083C107.951 54.0068 107.965 53.9385 107.992 53.8779C108.021 53.8174 108.061 53.7656 108.109 53.7227C108.16 53.6777 108.22 53.6436 108.288 53.6201C108.356 53.5967 108.431 53.585 108.511 53.585C108.585 53.585 108.653 53.5967 108.716 53.6201C108.778 53.6416 108.832 53.6729 108.877 53.7139C108.924 53.7529 108.96 53.7998 108.985 53.8545C109.013 53.9092 109.026 53.9688 109.026 54.0332ZM108.722 57.9736C108.687 57.9834 108.646 57.9932 108.599 58.0029C108.554 58.0127 108.505 58.0215 108.452 58.0293C108.401 58.0391 108.348 58.0459 108.291 58.0498C108.236 58.0557 108.182 58.0586 108.127 58.0586C107.996 58.0586 107.884 58.041 107.79 58.0059C107.698 57.9727 107.622 57.9258 107.562 57.8652C107.501 57.8027 107.456 57.7295 107.427 57.6455C107.399 57.5596 107.386 57.4658 107.386 57.3643C107.386 57.3213 107.388 57.2734 107.392 57.2207C107.397 57.168 107.404 57.1133 107.412 57.0566C107.42 56.998 107.429 56.9395 107.438 56.8809C107.45 56.8203 107.462 56.7627 107.474 56.708C107.481 56.6748 107.494 56.6143 107.512 56.5264C107.531 56.4365 107.553 56.334 107.576 56.2188C107.602 56.1035 107.628 55.9824 107.655 55.8555C107.683 55.7266 107.708 55.6045 107.731 55.4893C107.757 55.374 107.778 55.2725 107.796 55.1846C107.815 55.0947 107.829 55.0332 107.837 55H108.774L108.417 56.6875C108.401 56.7559 108.385 56.833 108.367 56.9189C108.35 57.0029 108.341 57.0762 108.341 57.1387C108.341 57.2129 108.364 57.2646 108.411 57.2939C108.458 57.3232 108.512 57.3379 108.572 57.3379C108.623 57.3379 108.674 57.333 108.725 57.3232C108.777 57.3115 108.825 57.2969 108.868 57.2793C108.843 57.3965 108.818 57.5127 108.795 57.6279C108.771 57.7412 108.747 57.8564 108.722 57.9736ZM111.985 57.6396C111.931 57.9014 111.857 58.1406 111.766 58.3574C111.674 58.5742 111.55 58.7598 111.394 58.9141C111.237 59.0703 111.041 59.1914 110.805 59.2773C110.568 59.3652 110.278 59.4092 109.935 59.4092C109.745 59.4092 109.57 59.3887 109.41 59.3477C109.25 59.3086 109.101 59.2559 108.962 59.1895L109.126 58.4453C109.249 58.5273 109.384 58.5947 109.53 58.6475C109.677 58.7002 109.831 58.7266 109.993 58.7266C110.146 58.7266 110.278 58.7061 110.392 58.665C110.507 58.624 110.605 58.5635 110.688 58.4834C110.771 58.4033 110.841 58.3037 110.896 58.1846C110.95 58.0674 110.994 57.9316 111.027 57.7773L111.08 57.5137H111.068C111.018 57.5898 110.962 57.6621 110.901 57.7305C110.841 57.7969 110.773 57.8555 110.699 57.9062C110.627 57.957 110.546 57.9971 110.456 58.0264C110.368 58.0576 110.269 58.0732 110.157 58.0732C110.005 58.0732 109.871 58.0459 109.756 57.9912C109.643 57.9346 109.547 57.8564 109.469 57.7568C109.393 57.6572 109.335 57.5381 109.296 57.3994C109.257 57.2607 109.237 57.1074 109.237 56.9395C109.237 56.7715 109.255 56.6055 109.29 56.4414C109.327 56.2754 109.382 56.1182 109.454 55.9697C109.526 55.8193 109.617 55.6807 109.727 55.5537C109.836 55.4268 109.963 55.3174 110.107 55.2256C110.254 55.1318 110.418 55.0586 110.6 55.0059C110.781 54.9531 110.981 54.9268 111.2 54.9268C111.321 54.9268 111.441 54.9316 111.561 54.9414C111.682 54.9492 111.799 54.9609 111.912 54.9766C112.027 54.9902 112.137 55.0068 112.24 55.0264C112.344 55.0439 112.439 55.0615 112.527 55.0791L111.985 57.6396ZM111.487 55.6064C111.442 55.5967 111.39 55.5898 111.329 55.5859C111.271 55.5801 111.208 55.5771 111.142 55.5771C111.007 55.5771 110.88 55.6104 110.761 55.6768C110.644 55.7432 110.541 55.834 110.453 55.9492C110.365 56.0645 110.296 56.2002 110.245 56.3564C110.194 56.5127 110.169 56.6807 110.169 56.8604C110.169 56.9326 110.176 57 110.189 57.0625C110.205 57.123 110.229 57.1758 110.26 57.2207C110.291 57.2656 110.329 57.3008 110.374 57.3262C110.421 57.3516 110.475 57.3643 110.535 57.3643C110.613 57.3643 110.685 57.3486 110.749 57.3174C110.815 57.2861 110.875 57.2441 110.928 57.1914C110.982 57.1367 111.03 57.0742 111.071 57.0039C111.114 56.9336 111.152 56.8594 111.186 56.7812C111.219 56.7031 111.247 56.624 111.271 56.5439C111.296 56.4639 111.316 56.3877 111.332 56.3154L111.487 55.6064ZM114.487 54.0332C114.487 54.1094 114.473 54.1777 114.443 54.2383C114.414 54.2988 114.374 54.3516 114.323 54.3965C114.274 54.4395 114.216 54.4727 114.147 54.4961C114.081 54.5195 114.009 54.5312 113.931 54.5312C113.856 54.5312 113.787 54.5205 113.723 54.499C113.66 54.4756 113.605 54.4443 113.559 54.4053C113.514 54.3643 113.478 54.3164 113.45 54.2617C113.425 54.207 113.412 54.1475 113.412 54.083C113.412 54.0068 113.426 53.9385 113.453 53.8779C113.482 53.8174 113.521 53.7656 113.57 53.7227C113.621 53.6777 113.681 53.6436 113.749 53.6201C113.817 53.5967 113.892 53.585 113.972 53.585C114.046 53.585 114.114 53.5967 114.177 53.6201C114.239 53.6416 114.293 53.6729 114.338 53.7139C114.385 53.7529 114.421 53.7998 114.446 53.8545C114.474 53.9092 114.487 53.9688 114.487 54.0332ZM114.183 57.9736C114.147 57.9834 114.106 57.9932 114.06 58.0029C114.015 58.0127 113.966 58.0215 113.913 58.0293C113.862 58.0391 113.809 58.0459 113.752 58.0498C113.697 58.0557 113.643 58.0586 113.588 58.0586C113.457 58.0586 113.345 58.041 113.251 58.0059C113.159 57.9727 113.083 57.9258 113.022 57.8652C112.962 57.8027 112.917 57.7295 112.888 57.6455C112.86 57.5596 112.847 57.4658 112.847 57.3643C112.847 57.3213 112.849 57.2734 112.853 57.2207C112.858 57.168 112.865 57.1133 112.873 57.0566C112.881 56.998 112.89 56.9395 112.899 56.8809C112.911 56.8203 112.923 56.7627 112.935 56.708C112.942 56.6748 112.955 56.6143 112.973 56.5264C112.992 56.4365 113.014 56.334 113.037 56.2188C113.062 56.1035 113.089 55.9824 113.116 55.8555C113.144 55.7266 113.169 55.6045 113.192 55.4893C113.218 55.374 113.239 55.2725 113.257 55.1846C113.276 55.0947 113.29 55.0332 113.298 55H114.235L113.878 56.6875C113.862 56.7559 113.846 56.833 113.828 56.9189C113.811 57.0029 113.802 57.0762 113.802 57.1387C113.802 57.2129 113.825 57.2646 113.872 57.2939C113.919 57.3232 113.973 57.3379 114.033 57.3379C114.084 57.3379 114.135 57.333 114.186 57.3232C114.238 57.3115 114.286 57.2969 114.329 57.2793C114.304 57.3965 114.279 57.5127 114.256 57.6279C114.232 57.7412 114.208 57.8564 114.183 57.9736ZM116.793 55.6826H116.093L115.853 56.8047C115.849 56.8301 115.844 56.8574 115.838 56.8867C115.832 56.916 115.826 56.9453 115.82 56.9746C115.816 57.0039 115.812 57.0322 115.809 57.0596C115.805 57.085 115.803 57.1064 115.803 57.124C115.803 57.2021 115.822 57.2598 115.861 57.2969C115.9 57.334 115.965 57.3525 116.055 57.3525C116.078 57.3525 116.107 57.3496 116.143 57.3438C116.18 57.3379 116.217 57.3301 116.254 57.3203C116.293 57.3105 116.33 57.3008 116.365 57.291C116.4 57.2793 116.429 57.2695 116.45 57.2617L116.307 57.9473C116.271 57.9609 116.229 57.9746 116.178 57.9883C116.127 58.002 116.071 58.0146 116.011 58.0264C115.95 58.0381 115.887 58.0479 115.82 58.0557C115.756 58.0635 115.692 58.0674 115.63 58.0674C115.481 58.0674 115.357 58.0479 115.258 58.0088C115.158 57.9717 115.078 57.9199 115.018 57.8535C114.959 57.7852 114.917 57.7061 114.892 57.6162C114.868 57.5264 114.856 57.4287 114.856 57.3232C114.856 57.292 114.858 57.2559 114.862 57.2148C114.866 57.1738 114.871 57.1318 114.877 57.0889C114.885 57.0459 114.893 57.0029 114.9 56.96C114.91 56.915 114.919 56.874 114.927 56.8369L115.167 55.6826H114.704L114.868 55H115.311L115.463 54.2969L116.438 54.0566L116.242 55H116.954L116.793 55.6826ZM119.799 57.0098C119.785 57.0703 119.771 57.1436 119.758 57.2295C119.746 57.3154 119.734 57.4053 119.723 57.499C119.713 57.5908 119.704 57.6816 119.696 57.7715C119.69 57.8594 119.688 57.9355 119.688 58H118.75C118.75 57.9707 118.751 57.9336 118.753 57.8887C118.757 57.8418 118.761 57.7949 118.765 57.748C118.769 57.6992 118.772 57.6523 118.776 57.6074C118.782 57.5605 118.787 57.5215 118.791 57.4902H118.779C118.723 57.5664 118.664 57.6396 118.604 57.71C118.543 57.7803 118.476 57.8428 118.401 57.8975C118.327 57.9502 118.244 57.9922 118.152 58.0234C118.062 58.0566 117.958 58.0732 117.839 58.0732C117.692 58.0732 117.562 58.0469 117.446 57.9941C117.333 57.9414 117.237 57.8652 117.159 57.7656C117.081 57.666 117.021 57.5449 116.98 57.4023C116.939 57.2578 116.919 57.0947 116.919 56.9131C116.919 56.8213 116.929 56.709 116.948 56.5762C116.97 56.4414 117.007 56.3008 117.06 56.1543C117.114 56.0059 117.189 55.8594 117.285 55.7148C117.381 55.5684 117.503 55.4365 117.651 55.3193C117.802 55.2021 117.982 55.1074 118.193 55.0352C118.406 54.9629 118.656 54.9268 118.943 54.9268C119.055 54.9268 119.166 54.9316 119.277 54.9414C119.391 54.9492 119.501 54.9609 119.608 54.9766C119.718 54.9902 119.823 55.0068 119.925 55.0264C120.026 55.0459 120.121 55.0654 120.209 55.085L119.799 57.0098ZM119.169 55.6064C119.124 55.5967 119.074 55.5898 119.02 55.5859C118.965 55.5801 118.913 55.5771 118.864 55.5771C118.729 55.5771 118.611 55.5996 118.51 55.6445C118.408 55.6895 118.319 55.748 118.243 55.8203C118.169 55.8926 118.106 55.9746 118.056 56.0664C118.005 56.1582 117.964 56.252 117.933 56.3477C117.903 56.4414 117.882 56.5332 117.868 56.623C117.856 56.7129 117.851 56.792 117.851 56.8604C117.851 56.9326 117.857 57 117.871 57.0625C117.887 57.123 117.91 57.1758 117.941 57.2207C117.973 57.2656 118.011 57.3008 118.056 57.3262C118.103 57.3516 118.156 57.3643 118.217 57.3643C118.328 57.3643 118.427 57.332 118.513 57.2676C118.601 57.2031 118.677 57.1211 118.741 57.0215C118.808 56.9199 118.862 56.8066 118.905 56.6816C118.95 56.5547 118.986 56.4297 119.014 56.3066L119.169 55.6064ZM121.864 57.9736C121.829 57.9834 121.788 57.9932 121.741 58.0029C121.696 58.0127 121.647 58.0215 121.595 58.0293C121.544 58.0391 121.49 58.0459 121.434 58.0498C121.379 58.0557 121.324 58.0586 121.27 58.0586C121.139 58.0586 121.026 58.041 120.933 58.0059C120.841 57.9727 120.765 57.9258 120.704 57.8652C120.644 57.8027 120.599 57.7295 120.569 57.6455C120.542 57.5596 120.528 57.4658 120.528 57.3643C120.528 57.3213 120.53 57.2734 120.534 57.2207C120.54 57.168 120.547 57.1133 120.555 57.0566C120.562 56.998 120.571 56.9395 120.581 56.8809C120.593 56.8203 120.604 56.7627 120.616 56.708C120.622 56.6826 120.635 56.6211 120.654 56.5234C120.676 56.4238 120.702 56.3018 120.733 56.1572C120.765 56.0127 120.799 55.8525 120.836 55.6768C120.873 55.499 120.911 55.3184 120.95 55.1348C120.991 54.9492 121.03 54.7686 121.067 54.5928C121.104 54.415 121.139 54.2539 121.17 54.1094C121.201 53.9648 121.227 53.8438 121.246 53.7461C121.268 53.6465 121.281 53.584 121.287 53.5586H122.225L121.56 56.6875C121.544 56.7559 121.527 56.833 121.51 56.9189C121.492 57.0029 121.483 57.0762 121.483 57.1387C121.483 57.2129 121.507 57.2646 121.554 57.2939C121.601 57.3232 121.654 57.3379 121.715 57.3379C121.766 57.3379 121.816 57.333 121.867 57.3232C121.92 57.3115 121.968 57.2969 122.011 57.2793C121.985 57.3965 121.961 57.5127 121.938 57.6279C121.914 57.7412 121.89 57.8564 121.864 57.9736Z" fill="#FCFBF4"/>
<path d="M102 61H116" stroke="white" stroke-width="0.8" stroke-linecap="round" stroke-linejoin="round" stroke-dasharray="2 3"/>
<defs>
<filter id="filter0_d_217_3" x="62.5672" y="0.958649" width="73.5792" height="74.8648" filterUnits="userSpaceOnUse" color-interpolation-filters="sRGB">
<feFlood flood-opacity="0" result="BackgroundImageFix"/>
<feColorMatrix in="SourceAlpha" type="matrix" values="0 0 0 0 0 0 0 0 0 0 0 0 0 0 0 0 0 0 127 0" result="hardAlpha"/>
<feOffset dy="20"/>
<feGaussianBlur stdDeviation="12.5"/>
<feComposite in2="hardAlpha" operator="out"/>
<feColorMatrix type="matrix" values="0 0 0 0 0.725521 0 0 0 0 0.768707 0 0 0 0 0.829167 0 0 0 1 0"/>
<feBlend mode="normal" in2="BackgroundImageFix" result="effect1_dropShadow_217_3"/>
<feBlend mode="normal" in="SourceGraphic" in2="effect1_dropShadow_217_3" result="shape"/>
</filter>
</defs>
</svg>
