<svg width="137" height="76" viewBox="0 0 137 76" fill="none" xmlns="http://www.w3.org/2000/svg">
<path d="M23.9342 57.9294C36.8452 71.1216 73.9176 75.626 98.7032 22" stroke="#0C61FE" stroke-width="3" stroke-linecap="round" stroke-dasharray="8 8"/>
<g filter="url(#filter0_d_202_16)">
<path d="M87.5672 22.5338L110.948 6L101.341 30.8234L97.3124 23.7734L87.5672 22.5338Z" fill="#0C61FE"/>
<path d="M95.8329 30.4274L98.6662 26.0313L97.3623 23.76L94.4234 23.3708L95.8329 30.4274Z" fill="#0C61FE"/>
<path d="M97.1725 23.6504L110.752 6.26645" stroke="white"/>
</g>
<path d="M13.104 36.704C13.104 36.816 13.072 36.904 13.008 36.968C12.944 37.032 12.856 37.064 12.744 37.064H5.568C5.488 37.064 5.448 37.104 5.448 37.184V39.44C5.448 39.52 5.488 39.56 5.568 39.56H10.008C10.12 39.56 10.208 39.592 10.272 39.656C10.336 39.72 10.368 39.808 10.368 39.92V43.04C10.368 43.152 10.336 43.24 10.272 43.304C10.208 43.368 10.12 43.4 10.008 43.4H5.568C5.488 43.4 5.448 43.44 5.448 43.52V46.016C5.448 46.096 5.488 46.136 5.568 46.136H12.744C12.856 46.136 12.944 46.168 13.008 46.232C13.072 46.296 13.104 46.384 13.104 46.496V49.64C13.104 49.752 13.072 49.84 13.008 49.904C12.944 49.968 12.856 50 12.744 50H1.296C1.184 50 1.096 49.968 1.032 49.904C0.968 49.84 0.936 49.752 0.936 49.64V33.56C0.936 33.448 0.968 33.36 1.032 33.296C1.096 33.232 1.184 33.2 1.296 33.2H12.744C12.856 33.2 12.944 33.232 13.008 33.296C13.072 33.36 13.104 33.448 13.104 33.56V36.704ZM18.1755 50C17.9675 50 17.8315 49.904 17.7675 49.712L14.0955 37.928C14.0795 37.896 14.0715 37.848 14.0715 37.784C14.0715 37.608 14.1835 37.52 14.4075 37.52H18.5355C18.7595 37.52 18.8955 37.624 18.9435 37.832L20.2155 43.784C20.2315 43.848 20.2555 43.88 20.2875 43.88C20.3195 43.88 20.3435 43.848 20.3595 43.784L21.6315 37.832C21.6795 37.624 21.8155 37.52 22.0395 37.52L26.1675 37.568C26.2955 37.568 26.3835 37.608 26.4315 37.688C26.4955 37.752 26.5115 37.848 26.4795 37.976L22.8315 49.712C22.7675 49.904 22.6315 50 22.4235 50H18.1755ZM38.6196 42.872C38.6676 43.224 38.6916 43.584 38.6916 43.952C38.6916 44.208 38.6836 44.408 38.6676 44.552C38.6676 44.776 38.5476 44.888 38.3076 44.888H31.1076C31.0436 44.888 31.0116 44.92 31.0116 44.984C31.0116 45.128 31.0756 45.296 31.2036 45.488C31.3636 45.76 31.6436 45.992 32.0436 46.184C32.4596 46.36 32.9236 46.448 33.4356 46.448C33.8676 46.448 34.2676 46.384 34.6356 46.256C35.0036 46.128 35.3156 45.944 35.5716 45.704C35.6516 45.64 35.7316 45.608 35.8116 45.608C35.9236 45.608 36.0116 45.656 36.0756 45.752L37.8996 48.08C37.9636 48.16 37.9956 48.248 37.9956 48.344C37.9956 48.44 37.9556 48.52 37.8756 48.584C37.3156 49.128 36.6196 49.536 35.7876 49.808C34.9556 50.064 34.0596 50.192 33.0996 50.192C31.6116 50.192 30.3396 49.88 29.2836 49.256C28.2276 48.632 27.4596 47.744 26.9796 46.592C26.6276 45.76 26.4516 44.864 26.4516 43.904C26.4516 42.896 26.5956 42 26.8836 41.216C27.3156 40 28.0276 39.048 29.0196 38.36C30.0116 37.672 31.1796 37.328 32.5236 37.328C33.5476 37.328 34.4916 37.568 35.3556 38.048C36.2356 38.528 36.9556 39.192 37.5156 40.04C38.0916 40.872 38.4596 41.816 38.6196 42.872ZM32.4996 41.192C31.8436 41.192 31.3876 41.512 31.1316 42.152L31.0356 42.416C31.0196 42.464 31.0276 42.504 31.0596 42.536C31.0916 42.552 31.1236 42.56 31.1556 42.56H33.8916C33.9556 42.56 33.9876 42.528 33.9876 42.464C33.9876 42.4 33.9636 42.296 33.9156 42.152C33.8356 41.848 33.6676 41.616 33.4116 41.456C33.1716 41.28 32.8676 41.192 32.4996 41.192ZM47.3738 37.328C48.1738 37.328 48.8938 37.504 49.5338 37.856C50.1738 38.208 50.6778 38.728 51.0458 39.416C51.4298 40.088 51.6218 40.888 51.6218 41.816V49.64C51.6218 49.752 51.5898 49.84 51.5258 49.904C51.4618 49.968 51.3738 50 51.2618 50H47.4698C47.3578 50 47.2698 49.968 47.2058 49.904C47.1418 49.84 47.1098 49.752 47.1098 49.64V42.8C47.1098 42.32 46.9818 41.936 46.7258 41.648C46.4858 41.344 46.1658 41.192 45.7658 41.192C45.3498 41.192 45.0138 41.344 44.7578 41.648C44.5178 41.936 44.3978 42.32 44.3978 42.8V49.64C44.3978 49.752 44.3658 49.84 44.3018 49.904C44.2378 49.968 44.1498 50 44.0378 50H40.2458C40.1338 50 40.0458 49.968 39.9818 49.904C39.9178 49.84 39.8857 49.752 39.8857 49.64V37.88C39.8857 37.768 39.9178 37.68 39.9818 37.616C40.0458 37.552 40.1338 37.52 40.2458 37.52H44.0378C44.1498 37.52 44.2378 37.552 44.3018 37.616C44.3658 37.68 44.3978 37.768 44.3978 37.88V38.744C44.3978 38.808 44.4138 38.848 44.4458 38.864C44.4778 38.88 44.5018 38.864 44.5178 38.816C45.1258 37.824 46.0778 37.328 47.3738 37.328ZM61.2879 40.76C61.2879 40.872 61.2559 40.96 61.1919 41.024C61.1279 41.088 61.0399 41.12 60.9279 41.12H58.9359C58.8559 41.12 58.8159 41.16 58.8159 41.24V45.008C58.8159 45.808 59.1039 46.208 59.6799 46.208H60.5679C60.6799 46.208 60.7679 46.24 60.8319 46.304C60.8959 46.368 60.9279 46.456 60.9279 46.568V49.64C60.9279 49.864 60.8079 49.992 60.5679 50.024C59.9439 50.072 59.3439 50.096 58.7679 50.096C57.3119 50.096 56.2399 49.872 55.5519 49.424C54.8639 48.976 54.5119 48.128 54.4959 46.88V41.24C54.4959 41.16 54.4559 41.12 54.3759 41.12H53.0799C52.9679 41.12 52.8799 41.088 52.8159 41.024C52.7519 40.96 52.7199 40.872 52.7199 40.76V37.88C52.7199 37.768 52.7519 37.68 52.8159 37.616C52.8799 37.552 52.9679 37.52 53.0799 37.52H54.3759C54.4559 37.52 54.4959 37.48 54.4959 37.4V34.52C54.4959 34.408 54.5279 34.32 54.5919 34.256C54.6559 34.192 54.7439 34.16 54.8559 34.16H58.4559C58.5679 34.16 58.6559 34.192 58.7199 34.256C58.7839 34.32 58.8159 34.408 58.8159 34.52V37.4C58.8159 37.48 58.8559 37.52 58.9359 37.52H60.9279C61.0399 37.52 61.1279 37.552 61.1919 37.616C61.2559 37.68 61.2879 37.768 61.2879 37.88V40.76ZM73.8596 50.192C72.5476 50.192 71.3876 49.928 70.3796 49.4C69.3876 48.872 68.6116 48.128 68.0516 47.168C67.5076 46.208 67.2356 45.104 67.2356 43.856V39.32C67.2356 38.072 67.5076 36.976 68.0516 36.032C68.6116 35.072 69.3876 34.328 70.3796 33.8C71.3876 33.272 72.5476 33.008 73.8596 33.008C75.1396 33.008 76.2836 33.264 77.2916 33.776C78.2996 34.272 79.0756 34.952 79.6196 35.816C80.1796 36.68 80.4596 37.624 80.4596 38.648V38.672C80.4596 38.784 80.4276 38.872 80.3636 38.936C80.2996 39 80.2116 39.032 80.0996 39.032H76.3316C76.0916 39.032 75.9716 38.96 75.9716 38.816C75.9716 38.288 75.7796 37.832 75.3956 37.448C75.0276 37.064 74.5156 36.872 73.8596 36.872C73.2196 36.872 72.7076 37.088 72.3236 37.52C71.9396 37.936 71.7476 38.496 71.7476 39.2V44C71.7476 44.688 71.9636 45.248 72.3956 45.68C72.8436 46.112 73.3956 46.328 74.0516 46.328C74.6436 46.328 75.1236 46.168 75.4916 45.848C75.8756 45.512 76.0676 45.056 76.0676 44.48V44.168C76.0676 44.088 76.0276 44.048 75.9476 44.048H73.8356C73.7236 44.048 73.6356 44.016 73.5716 43.952C73.5076 43.888 73.4756 43.8 73.4756 43.688V40.808C73.4756 40.696 73.5076 40.608 73.5716 40.544C73.6356 40.48 73.7236 40.448 73.8356 40.448H80.0996C80.2116 40.448 80.2996 40.48 80.3636 40.544C80.4276 40.608 80.4596 40.696 80.4596 40.808V44.096C80.4596 45.28 80.1796 46.336 79.6196 47.264C79.0756 48.192 78.2996 48.912 77.2916 49.424C76.2996 49.936 75.1556 50.192 73.8596 50.192ZM87.8366 50.192C86.3166 50.192 85.0286 49.784 83.9726 48.968C82.9326 48.152 82.2446 47.048 81.9086 45.656C81.7486 45.08 81.6686 44.44 81.6686 43.736C81.6686 42.952 81.7646 42.24 81.9566 41.6C82.3406 40.272 83.0446 39.232 84.0686 38.48C85.1086 37.712 86.3726 37.328 87.8606 37.328C89.3486 37.328 90.5966 37.712 91.6046 38.48C92.6286 39.232 93.3326 40.256 93.7166 41.552C93.9086 42.224 94.0046 42.936 94.0046 43.688C94.0046 44.296 93.9406 44.904 93.8126 45.512C93.4766 46.952 92.7806 48.096 91.7246 48.944C90.6846 49.776 89.3886 50.192 87.8366 50.192ZM87.8366 46.328C88.2526 46.328 88.5886 46.192 88.8446 45.92C89.1006 45.632 89.2766 45.256 89.3726 44.792C89.4366 44.488 89.4686 44.128 89.4686 43.712C89.4686 43.344 89.4286 42.976 89.3486 42.608C89.1086 41.664 88.6046 41.192 87.8366 41.192C87.0366 41.192 86.5326 41.664 86.3246 42.608C86.2446 42.88 86.2046 43.248 86.2046 43.712C86.2046 44.128 86.2366 44.488 86.3006 44.792C86.5406 45.816 87.0526 46.328 87.8366 46.328Z" fill="#0C61FE"/>
<path d="M88.4863 54.2441H87.291L86.5 58H85.9961L86.793 54.2441H85.5713L85.665 53.7988H88.583L88.4863 54.2441ZM91.1934 55.7559C91.1934 55.7812 91.1895 55.8203 91.1816 55.873C91.1758 55.9238 91.168 55.9785 91.1582 56.0371C91.1504 56.0957 91.1406 56.1543 91.1289 56.2129C91.1191 56.2695 91.1094 56.3174 91.0996 56.3564L90.751 58H90.2646L90.6309 56.2422C90.6387 56.2109 90.6465 56.1748 90.6543 56.1338C90.6621 56.0928 90.6689 56.0518 90.6748 56.0107C90.6807 55.9697 90.6855 55.9326 90.6895 55.8994C90.6934 55.8643 90.6953 55.8369 90.6953 55.8174C90.6953 55.665 90.6602 55.5469 90.5898 55.4629C90.5215 55.3789 90.415 55.3369 90.2705 55.3369C90.1455 55.3369 90.0205 55.374 89.8955 55.4482C89.7705 55.5205 89.6543 55.6152 89.5469 55.7324C89.4395 55.8477 89.3457 55.9775 89.2656 56.1221C89.1875 56.2646 89.1328 56.4062 89.1016 56.5469L88.7881 58H88.3018L89.251 53.5586H89.7314L89.2744 55.7031H89.2861C89.3584 55.5918 89.4375 55.4893 89.5234 55.3955C89.6094 55.2998 89.7002 55.2178 89.7959 55.1494C89.8936 55.0791 89.9951 55.0244 90.1006 54.9854C90.208 54.9463 90.3184 54.9268 90.4316 54.9268C90.6816 54.9268 90.8711 55.001 91 55.1494C91.1289 55.2959 91.1934 55.498 91.1934 55.7559ZM92.7227 57.9883C92.6738 58.0039 92.6182 58.0166 92.5557 58.0264C92.4951 58.0361 92.4346 58.041 92.374 58.041C92.1768 58.041 92.0293 57.9922 91.9316 57.8945C91.834 57.7949 91.7852 57.6621 91.7852 57.4961C91.7852 57.4473 91.79 57.3896 91.7998 57.3232C91.8096 57.2568 91.8252 57.1748 91.8467 57.0771L92.2832 55H92.7695L92.3301 57.0889C92.3125 57.1709 92.2998 57.2344 92.292 57.2793C92.2861 57.3242 92.2832 57.3623 92.2832 57.3936C92.2832 57.4736 92.3047 57.5352 92.3477 57.5781C92.3926 57.6191 92.4629 57.6396 92.5586 57.6396C92.6094 57.6396 92.6533 57.6367 92.6904 57.6309C92.7295 57.625 92.7656 57.6162 92.7988 57.6045L92.7227 57.9883ZM93.0654 53.9307C93.0654 54.0186 93.0352 54.0938 92.9746 54.1562C92.916 54.2188 92.8428 54.25 92.7549 54.25C92.6689 54.25 92.5938 54.2197 92.5293 54.1592C92.4668 54.0967 92.4355 54.0205 92.4355 53.9307C92.4355 53.8408 92.4668 53.7676 92.5293 53.7109C92.5938 53.6543 92.6689 53.626 92.7549 53.626C92.8408 53.626 92.9141 53.6553 92.9746 53.7139C93.0352 53.7705 93.0654 53.8428 93.0654 53.9307ZM96.1211 55.75C96.1211 55.7793 96.1172 55.8193 96.1094 55.8701C96.1035 55.9209 96.0947 55.9756 96.083 56.0342C96.0732 56.0928 96.0625 56.1514 96.0508 56.21C96.041 56.2666 96.0312 56.3154 96.0215 56.3564L95.6729 58H95.1865L95.5527 56.2422C95.5605 56.2109 95.5684 56.1748 95.5762 56.1338C95.584 56.0928 95.5908 56.0518 95.5967 56.0107C95.6025 55.9697 95.6074 55.9326 95.6113 55.8994C95.6152 55.8643 95.6172 55.8369 95.6172 55.8174C95.6172 55.6689 95.5811 55.5518 95.5088 55.4658C95.4385 55.3799 95.333 55.3369 95.1924 55.3369C95.0635 55.3369 94.9355 55.375 94.8086 55.4512C94.6816 55.5273 94.5645 55.624 94.457 55.7412C94.3496 55.8584 94.2568 55.9873 94.1787 56.1279C94.1025 56.2686 94.0508 56.4043 94.0234 56.5352L93.71 58H93.2236L93.6865 55.8584C93.7021 55.7822 93.7178 55.7031 93.7334 55.6211C93.749 55.5371 93.7637 55.457 93.7773 55.3809C93.791 55.3027 93.8027 55.2305 93.8125 55.1641C93.8223 55.0977 93.8301 55.043 93.8359 55H94.3047C94.2949 55.0762 94.2832 55.1562 94.2695 55.2402C94.2559 55.3223 94.2441 55.3984 94.2344 55.4688C94.2227 55.5508 94.21 55.6309 94.1963 55.709H94.208C94.2764 55.6016 94.3516 55.501 94.4336 55.4072C94.5176 55.3115 94.6074 55.2285 94.7031 55.1582C94.8008 55.0859 94.9033 55.0293 95.0107 54.9883C95.1201 54.9473 95.2344 54.9268 95.3535 54.9268C95.4863 54.9268 95.6006 54.9473 95.6963 54.9883C95.792 55.0273 95.8711 55.083 95.9336 55.1553C95.998 55.2275 96.0449 55.3145 96.0742 55.416C96.1055 55.5176 96.1211 55.6289 96.1211 55.75ZM97.8906 56.3857L98.9512 58H98.3945L97.4102 56.415H97.3984L97.0615 58H96.5752L97.5244 53.5586H98.0049L97.4277 56.2715H97.4395L98.9336 55H99.5576L97.8906 56.3857ZM105.13 55.498C105.13 55.7051 105.108 55.9111 105.065 56.1162C105.024 56.3213 104.96 56.5166 104.872 56.7021C104.786 56.8877 104.675 57.0596 104.538 57.2178C104.401 57.376 104.238 57.5137 104.049 57.6309C103.859 57.7461 103.642 57.8369 103.396 57.9033C103.151 57.9678 102.877 58 102.572 58H101.242L102.136 53.7988H103.305C103.578 53.7988 103.827 53.8379 104.052 53.916C104.276 53.9922 104.468 54.1035 104.626 54.25C104.786 54.3965 104.91 54.5752 104.998 54.7861C105.086 54.9951 105.13 55.2324 105.13 55.498ZM104.614 55.5332C104.614 55.123 104.494 54.8057 104.254 54.5811C104.014 54.3564 103.657 54.2441 103.185 54.2441H102.543L101.834 57.5547H102.616C102.946 57.5547 103.235 57.502 103.483 57.3965C103.733 57.291 103.941 57.1465 104.107 56.9629C104.275 56.7793 104.401 56.5654 104.485 56.3213C104.571 56.0752 104.614 55.8125 104.614 55.5332ZM106.516 57.9883C106.467 58.0039 106.411 58.0166 106.349 58.0264C106.288 58.0361 106.228 58.041 106.167 58.041C105.97 58.041 105.822 57.9922 105.725 57.8945C105.627 57.7949 105.578 57.6621 105.578 57.4961C105.578 57.4473 105.583 57.3896 105.593 57.3232C105.603 57.2568 105.618 57.1748 105.64 57.0771L106.076 55H106.562L106.123 57.0889C106.105 57.1709 106.093 57.2344 106.085 57.2793C106.079 57.3242 106.076 57.3623 106.076 57.3936C106.076 57.4736 106.098 57.5352 106.141 57.5781C106.186 57.6191 106.256 57.6396 106.352 57.6396C106.402 57.6396 106.446 57.6367 106.483 57.6309C106.522 57.625 106.559 57.6162 106.592 57.6045L106.516 57.9883ZM106.858 53.9307C106.858 54.0186 106.828 54.0938 106.768 54.1562C106.709 54.2188 106.636 54.25 106.548 54.25C106.462 54.25 106.387 54.2197 106.322 54.1592C106.26 54.0967 106.229 54.0205 106.229 53.9307C106.229 53.8408 106.26 53.7676 106.322 53.7109C106.387 53.6543 106.462 53.626 106.548 53.626C106.634 53.626 106.707 53.6553 106.768 53.7139C106.828 53.7705 106.858 53.8428 106.858 53.9307ZM109.34 57.7832C109.291 58.0176 109.227 58.2334 109.146 58.4307C109.066 58.6299 108.96 58.8018 108.827 58.9463C108.696 59.0928 108.534 59.2061 108.341 59.2861C108.147 59.3682 107.912 59.4092 107.635 59.4092C107.443 59.4092 107.276 59.3867 107.134 59.3418C106.993 59.2969 106.864 59.2432 106.747 59.1807L106.838 58.7324C106.961 58.8066 107.092 58.8691 107.23 58.9199C107.369 58.9707 107.519 58.9961 107.679 58.9961C107.853 58.9961 108.003 58.9707 108.13 58.9199C108.259 58.8691 108.369 58.7939 108.461 58.6943C108.555 58.5967 108.632 58.4766 108.692 58.334C108.755 58.1914 108.807 58.0283 108.848 57.8447L108.95 57.376H108.938C108.864 57.4951 108.791 57.5986 108.719 57.6865C108.648 57.7725 108.574 57.8447 108.496 57.9033C108.418 57.96 108.336 58.002 108.25 58.0293C108.164 58.0586 108.069 58.0732 107.966 58.0732C107.831 58.0732 107.709 58.0488 107.6 58C107.49 57.9531 107.396 57.8828 107.318 57.7891C107.242 57.6953 107.183 57.5781 107.14 57.4375C107.099 57.2969 107.078 57.1348 107.078 56.9512C107.078 56.7773 107.097 56.6064 107.134 56.4385C107.173 56.2705 107.229 56.1113 107.301 55.9609C107.373 55.8105 107.461 55.6729 107.564 55.5479C107.67 55.4209 107.789 55.3115 107.922 55.2197C108.055 55.1279 108.2 55.0566 108.358 55.0059C108.519 54.9531 108.689 54.9268 108.871 54.9268C109.053 54.9268 109.234 54.9385 109.416 54.9619C109.598 54.9854 109.765 55.0117 109.917 55.041L109.34 57.7832ZM109.363 55.3955C109.297 55.3799 109.216 55.3662 109.12 55.3545C109.026 55.3428 108.926 55.3369 108.818 55.3369C108.635 55.3369 108.467 55.3799 108.314 55.4658C108.162 55.5498 108.03 55.665 107.919 55.8115C107.81 55.9561 107.724 56.125 107.661 56.3184C107.601 56.5117 107.57 56.7158 107.57 56.9307C107.57 57.0361 107.579 57.1338 107.597 57.2236C107.616 57.3135 107.646 57.3906 107.685 57.4551C107.726 57.5195 107.777 57.5703 107.84 57.6074C107.904 57.6445 107.982 57.6631 108.074 57.6631C108.182 57.6631 108.28 57.6406 108.37 57.5957C108.462 57.5508 108.546 57.4912 108.622 57.417C108.698 57.3428 108.766 57.2588 108.824 57.165C108.885 57.0693 108.938 56.9717 108.982 56.8721C109.029 56.7725 109.068 56.6748 109.1 56.5791C109.131 56.4814 109.155 56.3936 109.173 56.3154L109.363 55.3955ZM111.32 57.9883C111.271 58.0039 111.216 58.0166 111.153 58.0264C111.093 58.0361 111.032 58.041 110.972 58.041C110.774 58.041 110.627 57.9922 110.529 57.8945C110.432 57.7949 110.383 57.6621 110.383 57.4961C110.383 57.4473 110.388 57.3896 110.397 57.3232C110.407 57.2568 110.423 57.1748 110.444 57.0771L110.881 55H111.367L110.928 57.0889C110.91 57.1709 110.897 57.2344 110.89 57.2793C110.884 57.3242 110.881 57.3623 110.881 57.3936C110.881 57.4736 110.902 57.5352 110.945 57.5781C110.99 57.6191 111.061 57.6396 111.156 57.6396C111.207 57.6396 111.251 57.6367 111.288 57.6309C111.327 57.625 111.363 57.6162 111.396 57.6045L111.32 57.9883ZM111.663 53.9307C111.663 54.0186 111.633 54.0938 111.572 54.1562C111.514 54.2188 111.44 54.25 111.353 54.25C111.267 54.25 111.191 54.2197 111.127 54.1592C111.064 54.0967 111.033 54.0205 111.033 53.9307C111.033 53.8408 111.064 53.7676 111.127 53.7109C111.191 53.6543 111.267 53.626 111.353 53.626C111.438 53.626 111.512 53.6553 111.572 53.7139C111.633 53.7705 111.663 53.8428 111.663 53.9307ZM113.676 55.4072H112.92L112.583 56.998C112.571 57.0586 112.56 57.124 112.548 57.1943C112.536 57.2646 112.53 57.3213 112.53 57.3643C112.53 57.4639 112.552 57.5361 112.595 57.5811C112.64 57.624 112.71 57.6455 112.806 57.6455C112.829 57.6455 112.859 57.6416 112.896 57.6338C112.934 57.626 112.972 57.6162 113.011 57.6045C113.05 57.5928 113.088 57.5801 113.125 57.5664C113.164 57.5508 113.198 57.5371 113.228 57.5254L113.137 57.9473C113.068 57.9766 112.99 58.001 112.902 58.0205C112.816 58.042 112.734 58.0527 112.656 58.0527C112.545 58.0527 112.45 58.0381 112.372 58.0088C112.294 57.9814 112.229 57.9414 112.179 57.8887C112.13 57.8359 112.094 57.7725 112.07 57.6982C112.049 57.6221 112.038 57.5371 112.038 57.4434C112.038 57.3867 112.043 57.3213 112.053 57.2471C112.064 57.1709 112.078 57.1016 112.094 57.0391L112.439 55.4072H111.941L112.032 55H112.524L112.68 54.2676C112.688 54.2637 112.717 54.2549 112.768 54.2412C112.82 54.2256 112.877 54.209 112.938 54.1914C113 54.1719 113.057 54.1543 113.107 54.1387C113.16 54.123 113.189 54.1143 113.195 54.1123L113.011 55H113.767L113.676 55.4072ZM116.216 57.0391C116.2 57.1133 116.185 57.1973 116.169 57.291C116.155 57.3828 116.143 57.4746 116.131 57.5664C116.121 57.6562 116.112 57.7402 116.104 57.8184C116.099 57.8965 116.096 57.957 116.096 58H115.598C115.6 57.9609 115.603 57.9141 115.606 57.8594C115.61 57.8047 115.615 57.748 115.621 57.6895C115.629 57.6309 115.636 57.5732 115.642 57.5166C115.649 57.46 115.657 57.4111 115.665 57.3701H115.653C115.593 57.4658 115.531 57.5566 115.469 57.6426C115.406 57.7266 115.337 57.8008 115.261 57.8652C115.185 57.9297 115.1 57.9805 115.006 58.0176C114.912 58.0547 114.802 58.0732 114.675 58.0732C114.544 58.0732 114.424 58.0498 114.314 58.0029C114.207 57.9561 114.114 57.8867 114.036 57.7949C113.958 57.7012 113.897 57.585 113.854 57.4463C113.813 57.3057 113.793 57.1426 113.793 56.957C113.793 56.8438 113.805 56.7148 113.828 56.5703C113.852 56.4258 113.891 56.2783 113.945 56.1279C114.002 55.9775 114.076 55.8311 114.168 55.6885C114.262 55.5439 114.377 55.415 114.514 55.3018C114.652 55.1885 114.815 55.0977 115.003 55.0293C115.19 54.9609 115.407 54.9268 115.653 54.9268C115.81 54.9268 115.971 54.9385 116.137 54.9619C116.303 54.9854 116.468 55.0137 116.632 55.0469L116.216 57.0391ZM116.078 55.3955C116.01 55.3799 115.93 55.3662 115.838 55.3545C115.746 55.3428 115.66 55.3369 115.58 55.3369C115.41 55.3369 115.26 55.3643 115.129 55.4189C115 55.4717 114.888 55.542 114.792 55.6299C114.696 55.7158 114.615 55.8154 114.549 55.9287C114.484 56.042 114.433 56.1582 114.394 56.2773C114.354 56.3945 114.326 56.5107 114.309 56.626C114.293 56.7412 114.285 56.8457 114.285 56.9395C114.285 57.0508 114.295 57.1514 114.314 57.2412C114.334 57.3291 114.364 57.4043 114.405 57.4668C114.448 57.5293 114.502 57.5781 114.566 57.6133C114.633 57.6465 114.711 57.6631 114.801 57.6631C114.898 57.6631 114.989 57.6436 115.073 57.6045C115.159 57.5635 115.239 57.5088 115.313 57.4404C115.388 57.3721 115.455 57.293 115.516 57.2031C115.576 57.1133 115.631 57.0186 115.68 56.9189C115.729 56.8174 115.77 56.7148 115.803 56.6113C115.838 56.5059 115.866 56.4043 115.888 56.3066L116.078 55.3955ZM118.035 57.9883C117.986 58.0039 117.931 58.0166 117.868 58.0264C117.808 58.0361 117.747 58.041 117.687 58.041C117.489 58.041 117.342 57.9922 117.244 57.8945C117.146 57.7949 117.098 57.6621 117.098 57.4961C117.098 57.4473 117.103 57.3896 117.112 57.3232C117.122 57.2568 117.138 57.1748 117.159 57.0771L117.909 53.5557H118.396L117.643 57.0889C117.625 57.1709 117.612 57.2344 117.604 57.2793C117.599 57.3242 117.596 57.3623 117.596 57.3936C117.596 57.4736 117.617 57.5352 117.66 57.5781C117.705 57.6191 117.775 57.6396 117.871 57.6396C117.922 57.6396 117.966 57.6367 118.003 57.6309C118.042 57.625 118.078 57.6162 118.111 57.6045L118.035 57.9883Z" fill="#0C61FE"/>
<path d="M102 61H116" stroke="#0C61FE" stroke-width="0.8" stroke-linecap="round" stroke-linejoin="round" stroke-dasharray="2 3"/>
<defs>
<filter id="filter0_d_202_16" x="62.5672" y="0.958649" width="73.5792" height="74.8648" filterUnits="userSpaceOnUse" color-interpolation-filters="sRGB">
<feFlood flood-opacity="0" result="BackgroundImageFix"/>
<feColorMatrix in="SourceAlpha" type="matrix" values="0 0 0 0 0 0 0 0 0 0 0 0 0 0 0 0 0 0 127 0" result="hardAlpha"/>
<feOffset dy="20"/>
<feGaussianBlur stdDeviation="12.5"/>
<feComposite in2="hardAlpha" operator="out"/>
<feColorMatrix type="matrix" values="0 0 0 0 0.725521 0 0 0 0 0.768707 0 0 0 0 0.829167 0 0 0 1 0"/>
<feBlend mode="normal" in2="BackgroundImageFix" result="effect1_dropShadow_202_16"/>
<feBlend mode="normal" in="SourceGraphic" in2="effect1_dropShadow_202_16" result="shape"/>
</filter>
</defs>
</svg>
